<svg width="130" height="61" viewBox="0 0 130 61" fill="none" xmlns="http://www.w3.org/2000/svg">
<path d="M4.95672 6.10352e-05H0V35.7987H4.95672V22.5177C4.95672 20.271 5.51557 18.4985 6.63326 17.2503C7.75095 16.0021 9.2817 15.353 11.1769 15.353C12.8049 15.353 14.1655 15.9522 15.2589 17.1005C16.3523 18.2738 16.9112 19.7467 16.9112 21.5192V35.8236H21.8922V21.5192C21.8922 18.2239 20.9932 15.6276 19.1951 13.6804C17.3971 11.7332 15.0402 10.7596 12.1731 10.7596C11.347 10.7596 10.5209 10.8595 9.71906 11.0841C8.89294 11.3088 8.2369 11.5585 7.70235 11.8331C7.16781 12.1077 6.65756 12.4072 6.1959 12.7567C5.73424 13.1062 5.41838 13.3559 5.27259 13.5057C5.1268 13.6555 5.00532 13.7553 4.95672 13.8302V6.10352e-05Z" fill="#F0145A"/>
<path d="M32.9727 0H27.8628V35.7689H32.9727V0Z" fill="#323264"/>
<path d="M63.1113 25.2931L63.3668 22.7382C63.3668 19.3146 62.2427 16.4531 59.9432 14.1537C57.6438 11.8543 54.7823 10.7301 51.3587 10.7301C47.9351 10.7301 44.9714 11.9565 42.5187 14.4092C40.066 16.8619 38.8396 19.7745 38.8396 23.2492C38.8396 26.8261 40.1171 29.892 42.6209 32.4469C45.1247 35.0018 48.1395 36.2793 51.6142 36.2793C52.9428 36.2793 54.1691 36.0749 55.3955 35.7172C56.6218 35.3084 57.6438 34.8996 58.3592 34.4909C59.1257 34.031 59.8921 33.52 60.5564 32.9579C61.2207 32.3958 61.6806 31.987 61.885 31.7315C62.0894 31.4761 62.2427 31.3228 62.3449 31.1695L59.0235 27.8481L58.257 28.8189C57.746 29.4321 56.8773 30.0453 55.651 30.7096C54.3735 31.3739 53.045 31.6804 51.6142 31.6804C49.6214 31.6804 47.9351 31.0673 46.5044 29.7898C45.0736 28.5123 44.2049 27.0305 43.9494 25.2931H63.1113ZM51.3587 15.0735C53.2493 15.0735 54.7823 15.6355 56.0598 16.7086C57.2861 17.8328 58.0526 19.2124 58.3592 20.9498H44.1538C44.6137 19.2124 45.4313 17.8328 46.7088 16.7086C47.9351 15.6355 49.5192 15.0735 51.3587 15.0735Z" fill="#323264"/>
<path d="M86.943 34.2865C86.943 36.5348 86.2787 38.3743 84.8991 39.8051C83.5705 41.1847 81.8843 41.9001 79.7892 41.9001C78.8695 41.9001 77.9497 41.7468 77.081 41.4913C76.2124 41.2358 75.5481 40.9292 74.986 40.5715C74.4239 40.2139 73.9129 39.8562 73.4019 39.3963C72.9421 38.9364 72.6355 38.6298 72.4822 38.4765C72.3289 38.3232 72.2267 38.1699 72.1245 38.0677L68.8031 41.3891L69.2119 41.9001C69.4674 42.2578 69.9273 42.7177 70.5404 43.2287C71.1536 43.6885 71.869 44.1995 72.6866 44.7105C73.5041 45.1704 74.5261 45.5792 75.8036 45.9369C77.081 46.2946 78.4096 46.499 79.7892 46.499C83.2639 46.499 86.1254 45.3237 88.5271 42.9732C90.8776 40.5716 92.0528 37.71 92.0528 34.2354V11.2411H86.943V13.796L86.0743 13.0295C85.5123 12.5185 84.6436 12.0076 83.4172 11.4966C82.1909 10.9856 80.8623 10.7301 79.5338 10.7301C76.4168 10.7301 73.7596 11.9054 71.4602 14.307C69.1608 16.7086 68.0366 19.5701 68.0366 22.9937C68.0366 26.4173 69.1608 29.2788 71.4602 31.6804C73.7596 34.0821 76.4168 35.2573 79.5338 35.2573C80.4024 35.2573 81.22 35.1551 82.0887 34.9507C82.9062 34.6952 83.5705 34.4397 84.1326 34.1843C84.6947 33.9288 85.2057 33.6222 85.6656 33.2645C86.1254 32.9068 86.4831 32.6513 86.5853 32.5491L86.943 32.1914V34.2865ZM73.1465 22.9937C73.1465 20.8476 73.8107 19.0591 75.1904 17.5773C76.57 16.0954 78.2052 15.329 80.0447 15.329C81.8843 15.329 83.5194 16.0954 84.8991 17.5773C86.2276 19.0591 86.943 20.8476 86.943 22.9937C86.943 25.1398 86.2276 26.9283 84.8991 28.4101C83.5194 29.892 81.8843 30.6585 80.0447 30.6585C78.2052 30.6585 76.57 29.892 75.1904 28.4101C73.8107 26.9283 73.1465 25.1398 73.1465 22.9937Z" fill="#323264"/>
<path d="M118.724 35.7683V19.9278C118.724 17.3218 117.753 15.1246 115.863 13.3872C113.972 11.5988 111.519 10.7301 108.504 10.7301C107.329 10.7301 106.154 10.8834 105.03 11.19C103.906 11.5477 102.986 11.9054 102.322 12.3142C101.657 12.7229 100.993 13.1828 100.38 13.7449C99.7666 14.2559 99.409 14.6136 99.2046 14.818C99.0513 15.0224 98.898 15.1757 98.7958 15.329L102.117 18.6504L102.781 17.7817C103.19 17.2196 103.906 16.7086 104.979 16.1465C106.052 15.5845 107.227 15.329 108.504 15.329C109.986 15.329 111.213 15.7888 112.184 16.6575C113.154 17.5262 113.614 18.6504 113.614 19.9278L104.672 21.4608C102.475 21.8185 100.686 22.6871 99.46 24.0668C98.1826 25.4464 97.5183 27.1327 97.5183 29.1255C97.5183 31.0162 98.3359 32.6513 99.971 34.0821C101.657 35.5639 103.701 36.2793 106.205 36.2793C107.074 36.2793 107.891 36.1771 108.709 35.9216C109.578 35.7172 110.242 35.4617 110.804 35.2062C111.366 34.9507 111.877 34.6442 112.337 34.2865C112.797 33.9288 113.103 33.6733 113.308 33.5711C113.461 33.4178 113.563 33.2645 113.614 33.2134V35.7683H118.724ZM106.972 31.6804C105.643 31.6804 104.57 31.3739 103.803 30.7607C102.986 30.1475 102.628 29.4321 102.628 28.6145C102.628 27.7459 102.884 26.9794 103.446 26.4173C104.008 25.8552 104.774 25.4464 105.694 25.2931L113.614 24.0157V24.5267C113.614 26.8261 113.052 28.5634 111.877 29.8409C110.702 31.0673 109.067 31.6804 106.972 31.6804Z" fill="#323264"/>
<path d="M130 0H124.89V35.7689H130V0Z" fill="#323264"/>
<path d="M0 53.1185H1.59915V58.7253H5.06396V60.0283H0V53.1185Z" fill="#323264"/>
<path d="M15.5016 58.5477H12.2934L11.6814 60.0283H10.0428L13.1226 53.1185H14.702L17.7917 60.0283H16.1136L15.5016 58.5477ZM14.9982 57.3335L13.9025 54.688L12.8067 57.3335H14.9982Z" fill="#323264"/>
<path d="M33.5121 53.1185L31.2516 60.0283H29.534L28.0138 55.3494L26.4443 60.0283H24.7366L22.4662 53.1185H24.1245L25.6842 57.9751L27.313 53.1185H28.7937L30.3731 58.0146L31.9821 53.1185H33.5121Z" fill="#323264"/>
<path d="M50.5232 60.1468C49.819 60.1468 49.1807 59.9954 48.6082 59.6927C48.0422 59.3834 47.5947 58.959 47.2657 58.4193C46.9432 57.8731 46.782 57.2578 46.782 56.5734C46.782 55.889 46.9432 55.277 47.2657 54.7373C47.5947 54.1911 48.0422 53.7667 48.6082 53.464C49.1807 53.1547 49.8223 53 50.5331 53C51.1319 53 51.6716 53.1053 52.152 53.3159C52.6389 53.5265 53.047 53.8292 53.376 54.224L52.3494 55.1717C51.8821 54.6321 51.303 54.3622 50.612 54.3622C50.1843 54.3622 49.8026 54.4577 49.467 54.6485C49.1313 54.8328 48.8681 55.0927 48.6773 55.4283C48.493 55.764 48.4009 56.1456 48.4009 56.5734C48.4009 57.0012 48.493 57.3828 48.6773 57.7185C48.8681 58.0541 49.1313 58.3173 49.467 58.5082C49.8026 58.6924 50.1843 58.7846 50.612 58.7846C51.303 58.7846 51.8821 58.5115 52.3494 57.9653L53.376 58.9129C53.047 59.3143 52.6389 59.6203 52.152 59.8309C51.665 60.0415 51.1221 60.1468 50.5232 60.1468Z" fill="#323264"/>
<path d="M62.5933 60.1468C61.876 60.1468 61.2278 59.9922 60.6487 59.6829C60.0761 59.3736 59.6253 58.9491 59.2963 58.4095C58.9738 57.8632 58.8126 57.2512 58.8126 56.5734C58.8126 55.8956 58.9738 55.2868 59.2963 54.7472C59.6253 54.201 60.0761 53.7733 60.6487 53.464C61.2278 53.1547 61.876 53 62.5933 53C63.3106 53 63.9555 53.1547 64.5281 53.464C65.1006 53.7733 65.5514 54.201 65.8804 54.7472C66.2095 55.2868 66.374 55.8956 66.374 56.5734C66.374 57.2512 66.2095 57.8632 65.8804 58.4095C65.5514 58.9491 65.1006 59.3736 64.5281 59.6829C63.9555 59.9922 63.3106 60.1468 62.5933 60.1468ZM62.5933 58.7846C63.0013 58.7846 63.3698 58.6924 63.6989 58.5082C64.0279 58.3173 64.2846 58.0541 64.4688 57.7185C64.6597 57.3828 64.7551 57.0012 64.7551 56.5734C64.7551 56.1456 64.6597 55.764 64.4688 55.4283C64.2846 55.0927 64.0279 54.8328 63.6989 54.6485C63.3698 54.4577 63.0013 54.3622 62.5933 54.3622C62.1853 54.3622 61.8168 54.4577 61.4877 54.6485C61.1587 54.8328 60.8987 55.0927 60.7079 55.4283C60.5236 55.764 60.4315 56.1456 60.4315 56.5734C60.4315 57.0012 60.5236 57.3828 60.7079 57.7185C60.8987 58.0541 61.1587 58.3173 61.4877 58.5082C61.8168 58.6924 62.1853 58.7846 62.5933 58.7846Z" fill="#323264"/>
<path d="M78.7995 60.0283L78.7896 55.8824L76.7561 59.2979H76.0355L74.0119 55.9713V60.0283H72.5115V53.1185H73.8342L76.4205 57.4125L78.9673 53.1185H80.2802L80.2999 60.0283H78.7995Z" fill="#323264"/>
<path d="M89.8659 53.1185C90.478 53.1185 91.0077 53.2205 91.4552 53.4245C91.9093 53.6285 92.2581 53.918 92.5016 54.2931C92.7451 54.6682 92.8668 55.1125 92.8668 55.6258C92.8668 56.1325 92.7451 56.5767 92.5016 56.9584C92.2581 57.3335 91.9093 57.623 91.4552 57.8271C91.0077 58.0245 90.478 58.1232 89.8659 58.1232H88.4741V60.0283H86.8749V53.1185H89.8659ZM89.7771 56.8202C90.2575 56.8202 90.6227 56.7182 90.8728 56.5142C91.1229 56.3036 91.2479 56.0074 91.2479 55.6258C91.2479 55.2375 91.1229 54.9414 90.8728 54.7373C90.6227 54.5268 90.2575 54.4215 89.7771 54.4215H88.4741V56.8202H89.7771Z" fill="#323264"/>
<path d="M103.148 58.5477H99.9396L99.3276 60.0283H97.6889L100.769 53.1185H102.348L105.438 60.0283H103.76L103.148 58.5477ZM102.644 57.3335L101.549 54.688L100.453 57.3335H102.644Z" fill="#323264"/>
<path d="M117.428 53.1185V60.0283H116.115L112.67 55.8331V60.0283H111.09V53.1185H112.413L115.848 57.3137V53.1185H117.428Z" fill="#323264"/>
<path d="M127.315 57.5803V60.0283H125.716V57.5605L123.041 53.1185H124.739L126.585 56.1884L128.43 53.1185H130L127.315 57.5803Z" fill="#323264"/>
</svg>
